<svg width="162" height="47" viewBox="0 0 162 47" fill="none" xmlns="http://www.w3.org/2000/svg">
<mask id="path-1-outside-1_54_1006" maskUnits="userSpaceOnUse" x="0" y="0" width="162" height="47" fill="black">
<rect fill="white" width="162" height="47"/>
<path d="M6.45 30.35C5.41667 30.35 4.43333 30.05 3.5 29.45C2.56667 28.8833 1.86667 28 1.4 26.8C1.23333 26.3667 1.11667 25.9 1.05 25.4C1.01667 24.9 1 24.4167 1 23.95V23.3C1 23.0667 1.01667 22.85 1.05 22.65C1.11667 22.45 1.25 22.35 1.45 22.35C1.51667 22.35 1.55 22.3833 1.55 22.45C1.55 22.65 1.53333 22.85 1.5 23.05C1.5 23.25 1.5 23.45 1.5 23.65C1.5 25.2167 1.88333 26.4167 2.65 27.25C3.45 28.05 4.43333 28.45 5.6 28.45C6.76667 28.45 7.9 28.1167 9 27.45C10.1 26.75 11.1167 25.8833 12.05 24.85C12.5833 24.2833 13.1833 23.4333 13.85 22.3C14.55 21.1333 15.2667 19.8333 16 18.4C16.7667 16.9333 17.5333 15.4333 18.3 13.9C19.0667 12.3333 19.8 10.8333 20.5 9.4C21.2 7.93333 21.8333 6.65 22.4 5.55C22.9333 4.51667 23.65 3.7 24.55 3.1C25.45 2.5 26.2167 2.08333 26.85 1.85C26.6167 1.85 26.1167 1.86667 25.35 1.9C24.6167 1.93333 23.8333 1.96667 23 2C22.1667 2.03333 21.5 2.06667 21 2.1C19.7333 2.16667 18.45 2.31667 17.15 2.55C15.85 2.78333 14.7 3.1 13.7 3.5C12.7 3.9 11.9833 4.41667 11.55 5.05C11.25 5.48333 11.1 5.98333 11.1 6.55C11.1 7.68333 11.6 8.5 12.6 9C12.6667 9.06667 12.7 9.1 12.7 9.1C12.7 9.2 12.6167 9.3 12.45 9.4C12.2833 9.46667 12.1167 9.48333 11.95 9.45C11.6833 9.28333 11.35 9.01667 10.95 8.65C10.5833 8.25 10.2333 7.83333 9.9 7.4C9.6 6.96667 9.4 6.6 9.3 6.3C9.13333 5.8 9.05 5.4 9.05 5.1C9.05 4.3 9.35 3.65 9.95 3.15C10.55 2.61667 11.3333 2.21667 12.3 1.95C13.2667 1.65 14.3 1.45 15.4 1.35C16.5 1.21667 17.5667 1.13333 18.6 1.1C19.6333 1.06667 20.5167 1.05 21.25 1.05C22.95 1.05 24.4667 1.05 25.8 1.05C27.1667 1.01667 28.4167 1 29.55 1C30.7167 1 31.8333 1.01667 32.9 1.05C34 1.08333 35.15 1.13333 36.35 1.2C37.2167 1.23333 37.8 1.4 38.1 1.7C38.4333 2 38.6 2.36667 38.6 2.8C38.6 3.36667 38.4167 3.98333 38.05 4.65C37.6833 5.31667 37.35 5.93333 37.05 6.5C36.9167 6.76667 36.7 6.96667 36.4 7.1C36.1 7.2 35.9833 7.1 36.05 6.8C36.1167 6.5 36.1833 6.18333 36.25 5.85C36.3167 5.48333 36.35 5.13333 36.35 4.8C36.35 4.2 36.2333 3.66667 36 3.2C35.7667 2.7 35.3667 2.35 34.8 2.15C34.4667 2.01667 34.0667 1.93333 33.6 1.9C33.1333 1.83333 32.6333 1.8 32.1 1.8C31.1 1.8 30.1 1.9 29.1 2.1C28.1 2.3 27.3167 2.61667 26.75 3.05C26.05 3.58333 25.3333 4.45 24.6 5.65C23.9 6.85 23.2333 8.13333 22.6 9.5C21.9667 10.8667 21.4 12.0667 20.9 13.1C20.8667 13.1667 20.85 13.2667 20.85 13.4C20.85 13.5667 21 13.65 21.3 13.65C21.7667 13.65 22.4167 13.65 23.25 13.65C24.1167 13.65 25.0167 13.6667 25.95 13.7C26.8833 13.7 27.6833 13.7 28.35 13.7C29.0833 13.7 29.6667 13.75 30.1 13.85C30.5333 13.9167 30.75 14.1333 30.75 14.5C30.75 14.6333 30.6667 14.9 30.5 15.3C30.2667 15.8333 30 16.3 29.7 16.7C29.4333 17.0667 29.2167 17.45 29.05 17.85C29.0167 17.9833 28.8667 18.1 28.6 18.2C28.3333 18.3 28.2333 18.2833 28.3 18.15C28.4333 17.85 28.5667 17.4833 28.7 17.05C28.8667 16.5833 28.95 16.1833 28.95 15.85C28.95 15.3167 28.7167 15.05 28.25 15.05H20.45C20.15 15.05 19.9167 15.1833 19.75 15.45C18.7833 17.3833 17.7333 19.45 16.6 21.65C15.5 23.85 14.2167 25.7333 12.75 27.3C11.9167 28.2 10.95 28.9333 9.85 29.5C8.75 30.0667 7.61667 30.35 6.45 30.35Z"/>
<path d="M36.0016 28.6C35.6682 28.6 35.3849 28.5333 35.1516 28.4C34.9182 28.2667 34.8016 28.0167 34.8016 27.65C34.8016 27.1833 34.9182 26.6333 35.1516 26C35.4182 25.3667 35.7016 24.7333 36.0016 24.1C36.3016 23.4667 36.5516 22.95 36.7516 22.55C37.1516 21.7833 37.5349 21.0167 37.9016 20.25C38.2682 19.4833 38.5849 18.8333 38.8516 18.3C39.1182 17.8 39.2516 17.4667 39.2516 17.3C39.2516 17.0333 39.0516 17.0333 38.6516 17.3C38.2849 17.5667 37.9349 17.8333 37.6016 18.1C36.8682 18.8 36.1016 19.6333 35.3016 20.6C34.5016 21.5333 33.8849 22.2833 33.4516 22.85C33.3516 22.9833 33.2682 23.05 33.2016 23.05C33.1349 23.05 33.1016 22.9667 33.1016 22.8C33.1016 22.5333 33.1849 22.2833 33.3516 22.05C33.8182 21.3833 34.3682 20.65 35.0016 19.85C35.6349 19.05 36.2849 18.2833 36.9516 17.55C37.5849 16.8833 38.2349 16.2333 38.9016 15.6C39.5682 14.9667 40.4182 14.65 41.4516 14.65C42.1516 14.65 42.5016 14.9167 42.5016 15.45C42.5016 15.9167 42.3016 16.45 41.9016 17.05C41.6682 17.4167 41.3016 18.0333 40.8016 18.9C40.3016 19.7667 39.7849 20.7167 39.2516 21.75C38.7516 22.75 38.3182 23.6833 37.9516 24.55C37.5849 25.4167 37.4016 26.05 37.4016 26.45C37.4016 26.9167 37.6349 27.15 38.1016 27.15C38.4682 27.15 38.9182 26.9667 39.4516 26.6C39.9849 26.2 40.5349 25.7333 41.1016 25.2C42.1349 24.2 43.0682 23.1167 43.9016 21.95C44.7682 20.75 45.5016 19.6 46.1016 18.5C46.7349 17.4 47.2349 16.5 47.6016 15.8C47.6682 15.6667 47.7349 15.5167 47.8016 15.35C47.9016 15.15 48.0516 15.0333 48.2516 15C48.4516 14.9667 48.8849 14.95 49.5516 14.95C50.2182 14.95 50.8349 14.8167 51.4016 14.55H51.5016C51.6016 14.55 51.6516 14.6 51.6516 14.7C51.6516 14.9667 51.4349 15.1667 51.0016 15.3C50.6016 15.4333 50.1349 15.8333 49.6016 16.5C49.1016 17.1667 48.6016 17.9833 48.1016 18.95C47.6016 19.8833 47.1516 20.85 46.7516 21.85C46.3516 22.85 46.0516 23.7667 45.8516 24.6C45.6516 25.4333 45.6016 26.05 45.7016 26.45C45.8349 26.9167 46.0682 27.15 46.4016 27.15C46.8349 27.15 47.4349 26.8833 48.2016 26.35C49.0016 25.8167 49.8182 25.1833 50.6516 24.45C51.4849 23.6833 52.1682 22.9833 52.7016 22.35C52.9349 22.0833 53.1516 21.8167 53.3516 21.55C53.5516 21.2833 53.6849 21.1167 53.7516 21.05C53.7849 21.0833 53.8182 21.15 53.8516 21.25C53.8849 21.3167 53.9016 21.3833 53.9016 21.45C53.8682 21.6833 53.7849 21.9167 53.6516 22.15C53.5182 22.35 53.3682 22.5333 53.2016 22.7C52.5682 23.5333 51.8016 24.4167 50.9016 25.35C50.0349 26.25 49.0849 27.0167 48.0516 27.65C47.0516 28.2833 46.0182 28.6 44.9516 28.6C44.6182 28.6 44.2349 28.5167 43.8016 28.35C43.4016 28.1833 43.2016 27.8167 43.2016 27.25C43.2016 26.8167 43.3182 26.2333 43.5516 25.5C43.7849 24.7333 44.0349 23.9833 44.3016 23.25C44.6016 22.4833 44.8516 21.9167 45.0516 21.55C44.6182 22.1833 44.0849 22.9 43.4516 23.7C42.8516 24.4667 42.2349 25.15 41.6016 25.75C40.7682 26.55 39.8682 27.2333 38.9016 27.8C37.9682 28.3333 37.0016 28.6 36.0016 28.6Z"/>
<path d="M63.8805 9.35C63.4138 9.35 63.0805 9.2 62.8805 8.9C62.7471 8.73333 62.6805 8.51667 62.6805 8.25C62.6805 7.71667 62.9471 7.28333 63.4805 6.95C63.7805 6.75 64.1138 6.65 64.4805 6.65C64.9471 6.65 65.2805 6.8 65.4805 7.1C65.6138 7.26667 65.6805 7.48333 65.6805 7.75C65.6805 8.28333 65.4138 8.71667 64.8805 9.05C64.5805 9.25 64.2471 9.35 63.8805 9.35ZM39.9805 45.95C38.7138 45.95 37.4971 45.65 36.3305 45.05C35.1305 44.4833 34.2471 43.6 33.6805 42.4C33.4805 41.9667 33.3471 41.5 33.2805 41C33.2138 40.5333 33.1805 40.0667 33.1805 39.6V39.05C33.1805 38.7833 33.2138 38.5333 33.2805 38.3C33.3471 38.1 33.5138 38 33.7805 38C33.8805 38 33.9305 38.0333 33.9305 38.1C33.9305 38.3 33.9138 38.5 33.8805 38.7C33.8138 38.9 33.7805 39.1167 33.7805 39.35C33.7805 40.8833 34.2805 42.05 35.2805 42.85C36.2471 43.65 37.4638 44.05 38.9305 44.05C39.5305 44.05 40.1471 43.9833 40.7805 43.85C41.4138 43.7167 42.0138 43.5333 42.5805 43.3C44.6805 42.4 46.5138 41.1167 48.0805 39.45C49.6138 37.8167 50.9638 35.9667 52.1305 33.9C53.2971 31.8333 54.3471 29.7333 55.2805 27.6C56.0805 25.7333 56.7471 23.9833 57.2805 22.35C57.8138 20.7167 58.2305 19.3667 58.5305 18.3C58.8638 17.2333 59.0805 16.65 59.1805 16.55C59.7138 16.0167 60.4138 15.5833 61.2805 15.25C62.1471 14.8833 62.8305 14.7 63.3305 14.7C63.7305 14.7 63.9305 14.8 63.9305 15C63.9305 15.2667 63.7805 15.4 63.4805 15.4C63.1138 15.4 62.7805 15.5 62.4805 15.7C62.1805 15.8667 61.9471 16.0833 61.7805 16.35C61.4805 16.7833 61.0471 17.5667 60.4805 18.7C59.9471 19.8333 59.3471 21.15 58.6805 22.65C58.0471 24.1167 57.4138 25.6167 56.7805 27.15C56.1471 28.65 55.5638 30.0333 55.0305 31.3C54.2305 33.2 53.3305 35.05 52.3305 36.85C51.2971 38.6833 50.0805 40.3167 48.6805 41.75C47.2805 43.2167 45.6305 44.3667 43.7305 45.2C42.5971 45.7 41.3471 45.95 39.9805 45.95Z"/>
<path d="M75.9688 9.35C75.5021 9.35 75.1687 9.2 74.9688 8.9C74.8354 8.73333 74.7688 8.51667 74.7688 8.25C74.7688 7.71667 75.0188 7.28333 75.5188 6.95C75.8854 6.75 76.2188 6.65 76.5188 6.65C77.0188 6.65 77.3688 6.8 77.5687 7.1C77.7021 7.26667 77.7688 7.48333 77.7688 7.75C77.7688 8.28333 77.5021 8.71667 76.9688 9.05C76.6687 9.25 76.3354 9.35 75.9688 9.35ZM67.2688 28.6C66.9354 28.6 66.6521 28.5333 66.4187 28.4C66.2188 28.2667 66.1188 28.0167 66.1188 27.65C66.1188 27.1833 66.2354 26.6333 66.4688 26C66.7354 25.3667 67.0187 24.7333 67.3187 24.1C67.6521 23.4667 67.9021 22.95 68.0687 22.55C68.3021 22.0833 68.5854 21.4833 68.9187 20.75C69.2854 19.9833 69.6187 19.2667 69.9187 18.6C70.2521 17.9 70.4854 17.4167 70.6188 17.15C70.1521 17.65 69.5854 18.2833 68.9187 19.05C68.2854 19.7833 67.6854 20.5 67.1188 21.2C66.5521 21.9 66.1188 22.45 65.8187 22.85C65.7188 22.9833 65.6354 23.05 65.5687 23.05C65.5021 23.05 65.4688 22.9667 65.4688 22.8C65.4688 22.5333 65.5521 22.2833 65.7188 22.05C66.3521 21.25 67.0521 20.35 67.8187 19.35C68.6188 18.35 69.3354 17.4333 69.9688 16.6C70.6021 15.7333 71.0021 15.1667 71.1687 14.9C71.5354 14.8333 72.0688 14.7333 72.7688 14.6C73.5021 14.4667 74.0021 14.2833 74.2688 14.05C74.3688 13.95 74.4688 13.9 74.5687 13.9C74.6354 13.9 74.6687 13.9667 74.6687 14.1C74.7021 14.2 74.6687 14.3167 74.5687 14.45C74.3688 14.6833 74.0188 15.25 73.5188 16.15C73.0188 17.05 72.4854 18.05 71.9187 19.15C71.3854 20.2167 70.8854 21.1833 70.4187 22.05C69.9521 22.95 69.5521 23.8167 69.2188 24.65C68.8854 25.4833 68.7188 26.0833 68.7188 26.45C68.7188 26.9167 68.9521 27.15 69.4187 27.15C69.8521 27.15 70.4021 26.8833 71.0687 26.35C71.7687 25.8167 72.4688 25.1833 73.1687 24.45C73.8687 23.6833 74.4854 22.9833 75.0188 22.35C75.1854 22.15 75.3854 21.9167 75.6188 21.65C75.8854 21.35 76.0521 21.1667 76.1188 21.1C76.1854 21.1667 76.2188 21.2833 76.2188 21.45C76.1854 21.6833 76.1021 21.9167 75.9688 22.15C75.8354 22.35 75.7021 22.5333 75.5687 22.7C74.8688 23.5667 74.1021 24.4667 73.2688 25.4C72.4354 26.3 71.5188 27.0667 70.5188 27.7C69.5188 28.3 68.4354 28.6 67.2688 28.6Z"/>
<path d="M81.0379 28.85C79.6712 28.85 78.7212 28.5833 78.1879 28.05C77.6546 27.5167 77.3879 26.8667 77.3879 26.1C77.3879 25.1333 77.6379 24.1 78.1379 23C78.6712 21.9 79.1712 20.9667 79.6379 20.2C80.1712 19.4 80.8879 18.5667 81.7879 17.7C82.6879 16.8333 83.6712 16.1 84.7379 15.5C85.8046 14.9 86.8379 14.6 87.8379 14.6C88.7046 14.6 89.3046 14.8167 89.6379 15.25C89.9712 15.65 90.1379 16.1333 90.1379 16.7C90.1379 17.7333 89.8212 18.5833 89.1879 19.25C88.5879 19.9167 87.8379 20.4667 86.9379 20.9C86.0379 21.3 85.1712 21.6333 84.3379 21.9C83.8379 22.0333 83.2546 22.1667 82.5879 22.3C81.9212 22.4333 81.2879 22.5 80.6879 22.5C80.4546 23.1 80.2712 23.6833 80.1379 24.25C80.0046 24.8167 79.9379 25.3333 79.9379 25.8C79.9379 26.3667 80.0712 26.8333 80.3379 27.2C80.6379 27.5667 81.1212 27.75 81.7879 27.75C82.0546 27.75 82.3712 27.7167 82.7379 27.65C83.1046 27.5833 83.5046 27.4833 83.9379 27.35C84.9379 27.0167 85.9212 26.4833 86.8879 25.75C87.8546 25.0167 88.7379 24.2333 89.5379 23.4C90.3712 22.5333 91.0046 21.8167 91.4379 21.25C91.5379 21.35 91.5879 21.4667 91.5879 21.6C91.5879 21.7667 91.4712 22.0333 91.2379 22.4C90.5712 23.3333 89.7046 24.3 88.6379 25.3C87.5712 26.3 86.3879 27.15 85.0879 27.85C83.7879 28.5167 82.4379 28.85 81.0379 28.85ZM81.0879 21.5C81.5212 21.5333 82.0046 21.5333 82.5379 21.5C83.1046 21.4333 83.6546 21.3167 84.1879 21.15C85.5546 20.75 86.5379 20.1167 87.1379 19.25C87.7712 18.35 88.0879 17.55 88.0879 16.85C88.0879 16.45 88.0046 16.1167 87.8379 15.85C87.6712 15.5833 87.4046 15.45 87.0379 15.45C86.0712 15.45 85.2046 15.8167 84.4379 16.55C83.6712 17.25 83.0046 18.0667 82.4379 19C81.8712 19.9333 81.4212 20.7667 81.0879 21.5Z"/>
<path d="M115.539 29.6C114.706 29.6 113.856 29.3333 112.989 28.8C112.156 28.3 111.306 27.4833 110.439 26.35C109.372 24.8833 108.472 23.4833 107.739 22.15C107.006 20.8167 106.406 19.65 105.939 18.65C105.506 17.65 105.172 16.9333 104.939 16.5C104.939 16.5 105.022 16.4 105.189 16.2C105.356 15.9667 105.556 15.75 105.789 15.55C106.056 15.3167 106.272 15.2 106.439 15.2C108.006 15.2 109.406 15.1833 110.639 15.15C111.906 15.0833 113.022 14.8833 113.989 14.55C114.989 14.1833 115.872 13.5667 116.639 12.7C117.406 11.8333 118.056 10.6 118.589 9C118.756 8.6 118.856 8.2 118.889 7.8C118.956 7.36667 118.989 6.95 118.989 6.55C118.989 5.41667 118.706 4.41667 118.139 3.55C117.572 2.68333 116.756 2.18333 115.689 2.05C115.556 2.01667 115.406 2 115.239 2C115.072 2 114.906 2 114.739 2C114.106 2 113.406 2.08333 112.639 2.25C111.906 2.41667 111.356 2.73333 110.989 3.2C110.156 4.3 109.356 5.55 108.589 6.95C107.822 8.31667 107.089 9.71667 106.389 11.15C105.689 12.55 105.022 13.8667 104.389 15.1C104.222 15.4333 103.906 16.0333 103.439 16.9C102.972 17.7333 102.456 18.7 101.889 19.8C101.322 20.8667 100.789 21.9333 100.289 23C99.7891 24.0667 99.3891 25.0167 99.0891 25.85C98.8224 26.6833 98.7557 27.25 98.8891 27.55C98.9224 27.5833 98.9391 27.6333 98.9391 27.7C98.9391 27.8 98.8891 27.85 98.7891 27.85C98.5224 27.85 98.2557 27.7833 97.9891 27.65C97.7224 27.5167 97.4057 27.45 97.0391 27.45C96.7057 27.45 96.3724 27.5333 96.0391 27.7C95.7057 27.8333 95.2724 28.0833 94.7391 28.45C94.2057 28.8167 93.6057 29.1167 92.9391 29.35C92.8724 29.3833 92.7724 29.4 92.6391 29.4C92.4057 29.4 92.2224 29.3333 92.0891 29.2C91.9557 29.1 91.9557 29.0167 92.0891 28.95C92.8224 28.8167 93.4557 28.55 93.9891 28.15C94.5224 27.7167 94.9557 27.1833 95.2891 26.55C95.9891 25.3833 96.6724 24.2167 97.3391 23.05C98.0391 21.85 98.7057 20.65 99.3391 19.45C100.106 17.9833 100.889 16.5167 101.689 15.05C102.489 13.55 103.289 12.0667 104.089 10.6C104.856 9.23333 105.539 7.91667 106.139 6.65C106.739 5.38333 107.189 4.46667 107.489 3.9C107.722 3.46667 108.122 3.08333 108.689 2.75C109.289 2.38333 109.872 2.1 110.439 1.9C110.239 1.9 110.039 1.9 109.839 1.9C109.639 1.86667 109.422 1.85 109.189 1.85C108.156 1.85 107.022 1.91667 105.789 2.05C104.589 2.15 103.406 2.31667 102.239 2.55C101.106 2.78333 100.106 3.1 99.2391 3.5C98.3724 3.9 97.7891 4.38333 97.4891 4.95C97.3557 5.25 97.2391 5.55 97.1391 5.85C97.0391 6.15 96.9891 6.45 96.9891 6.75C96.9891 7.51667 97.2557 8.06667 97.7891 8.4C97.8224 8.4 97.8391 8.43333 97.8391 8.5C97.8391 8.56667 97.7724 8.63333 97.6391 8.7C97.5391 8.76667 97.4557 8.78333 97.3891 8.75C97.0557 8.58333 96.6724 8.18333 96.2391 7.55C95.8391 6.88333 95.5724 6.33333 95.4391 5.9C95.3391 5.5 95.2891 5.13333 95.2891 4.8C95.2891 3.93333 95.5724 3.26667 96.1391 2.8C96.7057 2.3 97.4224 1.95 98.2891 1.75C99.1557 1.51667 100.039 1.38333 100.939 1.35C101.872 1.28333 102.689 1.25 103.389 1.25C104.456 1.25 105.722 1.25 107.189 1.25C108.656 1.21667 110.006 1.2 111.239 1.2C111.539 1.2 111.872 1.2 112.239 1.2C112.606 1.16667 112.989 1.15 113.389 1.15C114.289 1.15 115.222 1.2 116.189 1.3C117.156 1.4 118.039 1.61667 118.839 1.95C119.639 2.28333 120.256 2.8 120.689 3.5C121.256 4.43333 121.539 5.5 121.539 6.7C121.539 8.53333 121.056 10.0667 120.089 11.3C119.756 11.7333 119.389 12.15 118.989 12.55C118.589 12.95 118.122 13.3333 117.589 13.7C116.722 14.3 115.689 14.8167 114.489 15.25C113.289 15.65 112.039 15.95 110.739 16.15C109.472 16.35 108.306 16.4833 107.239 16.55C107.672 17.4833 108.322 18.7333 109.189 20.3C110.089 21.8667 111.172 23.4333 112.439 25C113.106 25.8333 113.789 26.4167 114.489 26.75C115.189 27.0833 115.872 27.25 116.539 27.25C117.606 27.25 118.606 26.9333 119.539 26.3C120.506 25.6667 121.372 24.9333 122.139 24.1C122.939 23.2333 123.572 22.4833 124.039 21.85C124.139 21.6833 124.222 21.6 124.289 21.6C124.389 21.6 124.439 21.7 124.439 21.9C124.439 22.1667 124.339 22.4333 124.139 22.7C122.606 24.8 121.139 26.4833 119.739 27.75C118.339 28.9833 116.939 29.6 115.539 29.6Z"/>
<path d="M121.567 45.95C120.301 45.95 119.084 45.65 117.917 45.05C116.717 44.4833 115.834 43.6 115.267 42.4C115.067 41.9667 114.934 41.5 114.867 41C114.801 40.5333 114.767 40.0667 114.767 39.6V39.05C114.767 38.7833 114.801 38.5333 114.867 38.3C114.934 38.1 115.101 38 115.367 38C115.434 38 115.467 38.0333 115.467 38.1C115.467 38.3 115.451 38.5 115.417 38.7C115.384 38.9 115.367 39.1167 115.367 39.35C115.367 40.8833 115.867 42.05 116.867 42.85C117.834 43.65 119.051 44.05 120.517 44.05C121.117 44.05 121.734 43.9833 122.367 43.85C123.001 43.7167 123.601 43.5333 124.167 43.3C126.267 42.4 128.084 41.1167 129.617 39.45C131.184 37.8167 132.551 35.9667 133.717 33.9C134.884 31.8333 135.934 29.7333 136.867 27.6C137.401 26.3333 137.867 25.1 138.267 23.9C138.701 22.7 139.084 21.6167 139.417 20.65C139.084 21.1167 138.651 21.6833 138.117 22.35C137.584 23.0167 137.051 23.6667 136.517 24.3C135.984 24.9 135.517 25.3833 135.117 25.75C134.284 26.55 133.384 27.2333 132.417 27.8C131.484 28.3333 130.517 28.6 129.517 28.6C129.184 28.6 128.901 28.5333 128.667 28.4C128.434 28.2667 128.317 28.0167 128.317 27.65C128.317 27.1833 128.434 26.6333 128.667 26C128.934 25.3667 129.217 24.7333 129.517 24.1C129.817 23.4667 130.067 22.95 130.267 22.55C130.667 21.7833 131.051 21.0167 131.417 20.25C131.784 19.4833 132.101 18.8333 132.367 18.3C132.634 17.8 132.767 17.4667 132.767 17.3C132.767 17.0333 132.567 17.0333 132.167 17.3C131.801 17.5667 131.451 17.8333 131.117 18.1C130.384 18.8 129.617 19.6333 128.817 20.6C128.017 21.5333 127.401 22.2833 126.967 22.85C126.867 22.9833 126.784 23.05 126.717 23.05C126.651 23.05 126.617 22.9667 126.617 22.8C126.617 22.5333 126.701 22.2833 126.867 22.05C127.334 21.3833 127.884 20.65 128.517 19.85C129.151 19.05 129.801 18.2833 130.467 17.55C131.101 16.8833 131.751 16.2333 132.417 15.6C133.084 14.9667 133.934 14.65 134.967 14.65C135.667 14.65 136.017 14.9167 136.017 15.45C136.017 15.9167 135.817 16.45 135.417 17.05C135.184 17.4167 134.817 18.0333 134.317 18.9C133.817 19.7667 133.301 20.7167 132.767 21.75C132.267 22.75 131.834 23.6833 131.467 24.55C131.101 25.4167 130.917 26.05 130.917 26.45C130.917 26.9167 131.151 27.15 131.617 27.15C131.984 27.15 132.434 26.9667 132.967 26.6C133.501 26.2 134.051 25.7333 134.617 25.2C135.584 24.2667 136.467 23.2333 137.267 22.1C138.101 20.9667 138.817 19.8833 139.417 18.85C139.517 18.6833 139.684 18.3833 139.917 17.95C140.184 17.5167 140.451 17.1 140.717 16.7C141.017 16.3 141.251 16.0667 141.417 16C141.584 15.9333 141.917 15.75 142.417 15.45C142.917 15.15 143.417 14.95 143.917 14.85C144.384 14.75 144.734 14.7 144.967 14.7C145.334 14.7 145.517 14.8 145.517 15C145.517 15.2667 145.367 15.4 145.067 15.4C144.701 15.4 144.367 15.5 144.067 15.7C143.767 15.8667 143.534 16.0833 143.367 16.35C143.067 16.7833 142.634 17.5667 142.067 18.7C141.534 19.8333 140.934 21.15 140.267 22.65C139.634 24.1167 139.001 25.6167 138.367 27.15C137.734 28.65 137.151 30.0333 136.617 31.3C135.817 33.2 134.901 35.05 133.867 36.85C132.834 38.6833 131.617 40.3167 130.217 41.75C128.851 43.2167 127.217 44.3667 125.317 45.2C124.184 45.7 122.934 45.95 121.567 45.95Z"/>
<path d="M147.705 28.55C147.171 28.55 146.688 28.45 146.255 28.25C145.855 28.0167 145.655 27.5333 145.655 26.8C145.655 25.6333 145.955 24.4667 146.555 23.3C147.155 22.1 147.771 21.05 148.405 20.15C148.971 19.3833 149.605 18.6667 150.305 18C151.038 17.3 151.821 16.7 152.655 16.2C153.188 15.8667 153.905 15.5167 154.805 15.15C155.738 14.75 156.521 14.55 157.155 14.55C157.688 14.55 158.155 14.7 158.555 15C158.955 15.2667 159.155 15.7667 159.155 16.5C159.155 17.6333 158.855 18.8 158.255 20C157.688 21.1667 157.088 22.2 156.455 23.1C156.155 23.5 155.855 23.8833 155.555 24.25C155.255 24.5833 154.921 24.9333 154.555 25.3C155.788 25.3 156.921 24.95 157.955 24.25C158.988 23.5167 159.888 22.6333 160.655 21.6L160.755 21.5C160.855 21.5 160.905 21.6 160.905 21.8C160.905 22.0333 160.838 22.25 160.705 22.45C160.038 23.3833 159.205 24.2167 158.205 24.95C157.205 25.65 156.071 26 154.805 26C154.671 26 154.538 26 154.405 26C154.271 26 154.138 25.9833 154.005 25.95C152.138 27.6833 150.038 28.55 147.705 28.55ZM149.005 27.7C149.471 27.7 149.971 27.5333 150.505 27.2C151.071 26.8667 151.505 26.55 151.805 26.25C152.371 25.6833 152.888 25.0833 153.355 24.45C153.821 23.7833 154.255 23.1167 154.655 22.45C155.121 21.65 155.588 20.7 156.055 19.6C156.521 18.5 156.755 17.4667 156.755 16.5C156.755 15.7333 156.488 15.35 155.955 15.35C155.521 15.35 154.988 15.5333 154.355 15.9C153.755 16.2667 153.305 16.6 153.005 16.9C151.871 18.0667 150.921 19.3333 150.155 20.7C149.721 21.4667 149.255 22.3667 148.755 23.4C148.255 24.4333 148.005 25.3833 148.005 26.25C148.005 26.3833 148.005 26.5167 148.005 26.65C148.038 26.75 148.071 26.8667 148.105 27C148.238 27.4667 148.538 27.7 149.005 27.7Z"/>
</mask>
<path d="M6.45 30.35C5.41667 30.35 4.43333 30.05 3.5 29.45C2.56667 28.8833 1.86667 28 1.4 26.8C1.23333 26.3667 1.11667 25.9 1.05 25.4C1.01667 24.9 1 24.4167 1 23.95V23.3C1 23.0667 1.01667 22.85 1.05 22.65C1.11667 22.45 1.25 22.35 1.45 22.35C1.51667 22.35 1.55 22.3833 1.55 22.45C1.55 22.65 1.53333 22.85 1.5 23.05C1.5 23.25 1.5 23.45 1.5 23.65C1.5 25.2167 1.88333 26.4167 2.65 27.25C3.45 28.05 4.43333 28.45 5.6 28.45C6.76667 28.45 7.9 28.1167 9 27.45C10.1 26.75 11.1167 25.8833 12.05 24.85C12.5833 24.2833 13.1833 23.4333 13.85 22.3C14.55 21.1333 15.2667 19.8333 16 18.4C16.7667 16.9333 17.5333 15.4333 18.3 13.9C19.0667 12.3333 19.8 10.8333 20.5 9.4C21.2 7.93333 21.8333 6.65 22.4 5.55C22.9333 4.51667 23.65 3.7 24.55 3.1C25.45 2.5 26.2167 2.08333 26.85 1.85C26.6167 1.85 26.1167 1.86667 25.35 1.9C24.6167 1.93333 23.8333 1.96667 23 2C22.1667 2.03333 21.5 2.06667 21 2.1C19.7333 2.16667 18.45 2.31667 17.15 2.55C15.85 2.78333 14.7 3.1 13.7 3.5C12.7 3.9 11.9833 4.41667 11.55 5.05C11.25 5.48333 11.1 5.98333 11.1 6.55C11.1 7.68333 11.6 8.5 12.6 9C12.6667 9.06667 12.7 9.1 12.7 9.1C12.7 9.2 12.6167 9.3 12.45 9.4C12.2833 9.46667 12.1167 9.48333 11.95 9.45C11.6833 9.28333 11.35 9.01667 10.95 8.65C10.5833 8.25 10.2333 7.83333 9.9 7.4C9.6 6.96667 9.4 6.6 9.3 6.3C9.13333 5.8 9.05 5.4 9.05 5.1C9.05 4.3 9.35 3.65 9.95 3.15C10.55 2.61667 11.3333 2.21667 12.3 1.95C13.2667 1.65 14.3 1.45 15.4 1.35C16.5 1.21667 17.5667 1.13333 18.6 1.1C19.6333 1.06667 20.5167 1.05 21.25 1.05C22.95 1.05 24.4667 1.05 25.8 1.05C27.1667 1.01667 28.4167 1 29.55 1C30.7167 1 31.8333 1.01667 32.9 1.05C34 1.08333 35.15 1.13333 36.35 1.2C37.2167 1.23333 37.8 1.4 38.1 1.7C38.4333 2 38.6 2.36667 38.6 2.8C38.6 3.36667 38.4167 3.98333 38.05 4.65C37.6833 5.31667 37.35 5.93333 37.05 6.5C36.9167 6.76667 36.7 6.96667 36.4 7.1C36.1 7.2 35.9833 7.1 36.05 6.8C36.1167 6.5 36.1833 6.18333 36.25 5.85C36.3167 5.48333 36.35 5.13333 36.35 4.8C36.35 4.2 36.2333 3.66667 36 3.2C35.7667 2.7 35.3667 2.35 34.8 2.15C34.4667 2.01667 34.0667 1.93333 33.6 1.9C33.1333 1.83333 32.6333 1.8 32.1 1.8C31.1 1.8 30.1 1.9 29.1 2.1C28.1 2.3 27.3167 2.61667 26.75 3.05C26.05 3.58333 25.3333 4.45 24.6 5.65C23.9 6.85 23.2333 8.13333 22.6 9.5C21.9667 10.8667 21.4 12.0667 20.9 13.1C20.8667 13.1667 20.85 13.2667 20.85 13.4C20.85 13.5667 21 13.65 21.3 13.65C21.7667 13.65 22.4167 13.65 23.25 13.65C24.1167 13.65 25.0167 13.6667 25.95 13.7C26.8833 13.7 27.6833 13.7 28.35 13.7C29.0833 13.7 29.6667 13.75 30.1 13.85C30.5333 13.9167 30.75 14.1333 30.75 14.5C30.75 14.6333 30.6667 14.9 30.5 15.3C30.2667 15.8333 30 16.3 29.7 16.7C29.4333 17.0667 29.2167 17.45 29.05 17.85C29.0167 17.9833 28.8667 18.1 28.6 18.2C28.3333 18.3 28.2333 18.2833 28.3 18.15C28.4333 17.85 28.5667 17.4833 28.7 17.05C28.8667 16.5833 28.95 16.1833 28.95 15.85C28.95 15.3167 28.7167 15.05 28.25 15.05H20.45C20.15 15.05 19.9167 15.1833 19.75 15.45C18.7833 17.3833 17.7333 19.45 16.6 21.65C15.5 23.85 14.2167 25.7333 12.75 27.3C11.9167 28.2 10.95 28.9333 9.85 29.5C8.75 30.0667 7.61667 30.35 6.45 30.35Z" fill="white"/>
<path d="M36.0016 28.6C35.6682 28.6 35.3849 28.5333 35.1516 28.4C34.9182 28.2667 34.8016 28.0167 34.8016 27.65C34.8016 27.1833 34.9182 26.6333 35.1516 26C35.4182 25.3667 35.7016 24.7333 36.0016 24.1C36.3016 23.4667 36.5516 22.95 36.7516 22.55C37.1516 21.7833 37.5349 21.0167 37.9016 20.25C38.2682 19.4833 38.5849 18.8333 38.8516 18.3C39.1182 17.8 39.2516 17.4667 39.2516 17.3C39.2516 17.0333 39.0516 17.0333 38.6516 17.3C38.2849 17.5667 37.9349 17.8333 37.6016 18.1C36.8682 18.8 36.1016 19.6333 35.3016 20.6C34.5016 21.5333 33.8849 22.2833 33.4516 22.85C33.3516 22.9833 33.2682 23.05 33.2016 23.05C33.1349 23.05 33.1016 22.9667 33.1016 22.8C33.1016 22.5333 33.1849 22.2833 33.3516 22.05C33.8182 21.3833 34.3682 20.65 35.0016 19.85C35.6349 19.05 36.2849 18.2833 36.9516 17.55C37.5849 16.8833 38.2349 16.2333 38.9016 15.6C39.5682 14.9667 40.4182 14.65 41.4516 14.65C42.1516 14.65 42.5016 14.9167 42.5016 15.45C42.5016 15.9167 42.3016 16.45 41.9016 17.05C41.6682 17.4167 41.3016 18.0333 40.8016 18.9C40.3016 19.7667 39.7849 20.7167 39.2516 21.75C38.7516 22.75 38.3182 23.6833 37.9516 24.55C37.5849 25.4167 37.4016 26.05 37.4016 26.45C37.4016 26.9167 37.6349 27.15 38.1016 27.15C38.4682 27.15 38.9182 26.9667 39.4516 26.6C39.9849 26.2 40.5349 25.7333 41.1016 25.2C42.1349 24.2 43.0682 23.1167 43.9016 21.95C44.7682 20.75 45.5016 19.6 46.1016 18.5C46.7349 17.4 47.2349 16.5 47.6016 15.8C47.6682 15.6667 47.7349 15.5167 47.8016 15.35C47.9016 15.15 48.0516 15.0333 48.2516 15C48.4516 14.9667 48.8849 14.95 49.5516 14.95C50.2182 14.95 50.8349 14.8167 51.4016 14.55H51.5016C51.6016 14.55 51.6516 14.6 51.6516 14.7C51.6516 14.9667 51.4349 15.1667 51.0016 15.3C50.6016 15.4333 50.1349 15.8333 49.6016 16.5C49.1016 17.1667 48.6016 17.9833 48.1016 18.95C47.6016 19.8833 47.1516 20.85 46.7516 21.85C46.3516 22.85 46.0516 23.7667 45.8516 24.6C45.6516 25.4333 45.6016 26.05 45.7016 26.45C45.8349 26.9167 46.0682 27.15 46.4016 27.15C46.8349 27.15 47.4349 26.8833 48.2016 26.35C49.0016 25.8167 49.8182 25.1833 50.6516 24.45C51.4849 23.6833 52.1682 22.9833 52.7016 22.35C52.9349 22.0833 53.1516 21.8167 53.3516 21.55C53.5516 21.2833 53.6849 21.1167 53.7516 21.05C53.7849 21.0833 53.8182 21.15 53.8516 21.25C53.8849 21.3167 53.9016 21.3833 53.9016 21.45C53.8682 21.6833 53.7849 21.9167 53.6516 22.15C53.5182 22.35 53.3682 22.5333 53.2016 22.7C52.5682 23.5333 51.8016 24.4167 50.9016 25.35C50.0349 26.25 49.0849 27.0167 48.0516 27.65C47.0516 28.2833 46.0182 28.6 44.9516 28.6C44.6182 28.6 44.2349 28.5167 43.8016 28.35C43.4016 28.1833 43.2016 27.8167 43.2016 27.25C43.2016 26.8167 43.3182 26.2333 43.5516 25.5C43.7849 24.7333 44.0349 23.9833 44.3016 23.25C44.6016 22.4833 44.8516 21.9167 45.0516 21.55C44.6182 22.1833 44.0849 22.9 43.4516 23.7C42.8516 24.4667 42.2349 25.15 41.6016 25.75C40.7682 26.55 39.8682 27.2333 38.9016 27.8C37.9682 28.3333 37.0016 28.6 36.0016 28.6Z" fill="white"/>
<path d="M63.8805 9.35C63.4138 9.35 63.0805 9.2 62.8805 8.9C62.7471 8.73333 62.6805 8.51667 62.6805 8.25C62.6805 7.71667 62.9471 7.28333 63.4805 6.95C63.7805 6.75 64.1138 6.65 64.4805 6.65C64.9471 6.65 65.2805 6.8 65.4805 7.1C65.6138 7.26667 65.6805 7.48333 65.6805 7.75C65.6805 8.28333 65.4138 8.71667 64.8805 9.05C64.5805 9.25 64.2471 9.35 63.8805 9.35ZM39.9805 45.95C38.7138 45.95 37.4971 45.65 36.3305 45.05C35.1305 44.4833 34.2471 43.6 33.6805 42.4C33.4805 41.9667 33.3471 41.5 33.2805 41C33.2138 40.5333 33.1805 40.0667 33.1805 39.6V39.05C33.1805 38.7833 33.2138 38.5333 33.2805 38.3C33.3471 38.1 33.5138 38 33.7805 38C33.8805 38 33.9305 38.0333 33.9305 38.1C33.9305 38.3 33.9138 38.5 33.8805 38.7C33.8138 38.9 33.7805 39.1167 33.7805 39.35C33.7805 40.8833 34.2805 42.05 35.2805 42.85C36.2471 43.65 37.4638 44.05 38.9305 44.05C39.5305 44.05 40.1471 43.9833 40.7805 43.85C41.4138 43.7167 42.0138 43.5333 42.5805 43.3C44.6805 42.4 46.5138 41.1167 48.0805 39.45C49.6138 37.8167 50.9638 35.9667 52.1305 33.9C53.2971 31.8333 54.3471 29.7333 55.2805 27.6C56.0805 25.7333 56.7471 23.9833 57.2805 22.35C57.8138 20.7167 58.2305 19.3667 58.5305 18.3C58.8638 17.2333 59.0805 16.65 59.1805 16.55C59.7138 16.0167 60.4138 15.5833 61.2805 15.25C62.1471 14.8833 62.8305 14.7 63.3305 14.7C63.7305 14.7 63.9305 14.8 63.9305 15C63.9305 15.2667 63.7805 15.4 63.4805 15.4C63.1138 15.4 62.7805 15.5 62.4805 15.7C62.1805 15.8667 61.9471 16.0833 61.7805 16.35C61.4805 16.7833 61.0471 17.5667 60.4805 18.7C59.9471 19.8333 59.3471 21.15 58.6805 22.65C58.0471 24.1167 57.4138 25.6167 56.7805 27.15C56.1471 28.65 55.5638 30.0333 55.0305 31.3C54.2305 33.2 53.3305 35.05 52.3305 36.85C51.2971 38.6833 50.0805 40.3167 48.6805 41.75C47.2805 43.2167 45.6305 44.3667 43.7305 45.2C42.5971 45.7 41.3471 45.95 39.9805 45.95Z" fill="white"/>
<path d="M75.9688 9.35C75.5021 9.35 75.1687 9.2 74.9688 8.9C74.8354 8.73333 74.7688 8.51667 74.7688 8.25C74.7688 7.71667 75.0188 7.28333 75.5188 6.95C75.8854 6.75 76.2188 6.65 76.5188 6.65C77.0188 6.65 77.3688 6.8 77.5687 7.1C77.7021 7.26667 77.7688 7.48333 77.7688 7.75C77.7688 8.28333 77.5021 8.71667 76.9688 9.05C76.6687 9.25 76.3354 9.35 75.9688 9.35ZM67.2688 28.6C66.9354 28.6 66.6521 28.5333 66.4187 28.4C66.2188 28.2667 66.1188 28.0167 66.1188 27.65C66.1188 27.1833 66.2354 26.6333 66.4688 26C66.7354 25.3667 67.0187 24.7333 67.3187 24.1C67.6521 23.4667 67.9021 22.95 68.0687 22.55C68.3021 22.0833 68.5854 21.4833 68.9187 20.75C69.2854 19.9833 69.6187 19.2667 69.9187 18.6C70.2521 17.9 70.4854 17.4167 70.6188 17.15C70.1521 17.65 69.5854 18.2833 68.9187 19.05C68.2854 19.7833 67.6854 20.5 67.1188 21.2C66.5521 21.9 66.1188 22.45 65.8187 22.85C65.7188 22.9833 65.6354 23.05 65.5687 23.05C65.5021 23.05 65.4688 22.9667 65.4688 22.8C65.4688 22.5333 65.5521 22.2833 65.7188 22.05C66.3521 21.25 67.0521 20.35 67.8187 19.35C68.6188 18.35 69.3354 17.4333 69.9688 16.6C70.6021 15.7333 71.0021 15.1667 71.1687 14.9C71.5354 14.8333 72.0688 14.7333 72.7688 14.6C73.5021 14.4667 74.0021 14.2833 74.2688 14.05C74.3688 13.95 74.4688 13.9 74.5687 13.9C74.6354 13.9 74.6687 13.9667 74.6687 14.1C74.7021 14.2 74.6687 14.3167 74.5687 14.45C74.3688 14.6833 74.0188 15.25 73.5188 16.15C73.0188 17.05 72.4854 18.05 71.9187 19.15C71.3854 20.2167 70.8854 21.1833 70.4187 22.05C69.9521 22.95 69.5521 23.8167 69.2188 24.65C68.8854 25.4833 68.7188 26.0833 68.7188 26.45C68.7188 26.9167 68.9521 27.15 69.4187 27.15C69.8521 27.15 70.4021 26.8833 71.0687 26.35C71.7687 25.8167 72.4688 25.1833 73.1687 24.45C73.8687 23.6833 74.4854 22.9833 75.0188 22.35C75.1854 22.15 75.3854 21.9167 75.6188 21.65C75.8854 21.35 76.0521 21.1667 76.1188 21.1C76.1854 21.1667 76.2188 21.2833 76.2188 21.45C76.1854 21.6833 76.1021 21.9167 75.9688 22.15C75.8354 22.35 75.7021 22.5333 75.5687 22.7C74.8688 23.5667 74.1021 24.4667 73.2688 25.4C72.4354 26.3 71.5188 27.0667 70.5188 27.7C69.5188 28.3 68.4354 28.6 67.2688 28.6Z" fill="white"/>
<path d="M81.0379 28.85C79.6712 28.85 78.7212 28.5833 78.1879 28.05C77.6546 27.5167 77.3879 26.8667 77.3879 26.1C77.3879 25.1333 77.6379 24.1 78.1379 23C78.6712 21.9 79.1712 20.9667 79.6379 20.2C80.1712 19.4 80.8879 18.5667 81.7879 17.7C82.6879 16.8333 83.6712 16.1 84.7379 15.5C85.8046 14.9 86.8379 14.6 87.8379 14.6C88.7046 14.6 89.3046 14.8167 89.6379 15.25C89.9712 15.65 90.1379 16.1333 90.1379 16.7C90.1379 17.7333 89.8212 18.5833 89.1879 19.25C88.5879 19.9167 87.8379 20.4667 86.9379 20.9C86.0379 21.3 85.1712 21.6333 84.3379 21.9C83.8379 22.0333 83.2546 22.1667 82.5879 22.3C81.9212 22.4333 81.2879 22.5 80.6879 22.5C80.4546 23.1 80.2712 23.6833 80.1379 24.25C80.0046 24.8167 79.9379 25.3333 79.9379 25.8C79.9379 26.3667 80.0712 26.8333 80.3379 27.2C80.6379 27.5667 81.1212 27.75 81.7879 27.75C82.0546 27.75 82.3712 27.7167 82.7379 27.65C83.1046 27.5833 83.5046 27.4833 83.9379 27.35C84.9379 27.0167 85.9212 26.4833 86.8879 25.75C87.8546 25.0167 88.7379 24.2333 89.5379 23.4C90.3712 22.5333 91.0046 21.8167 91.4379 21.25C91.5379 21.35 91.5879 21.4667 91.5879 21.6C91.5879 21.7667 91.4712 22.0333 91.2379 22.4C90.5712 23.3333 89.7046 24.3 88.6379 25.3C87.5712 26.3 86.3879 27.15 85.0879 27.85C83.7879 28.5167 82.4379 28.85 81.0379 28.85ZM81.0879 21.5C81.5212 21.5333 82.0046 21.5333 82.5379 21.5C83.1046 21.4333 83.6546 21.3167 84.1879 21.15C85.5546 20.75 86.5379 20.1167 87.1379 19.25C87.7712 18.35 88.0879 17.55 88.0879 16.85C88.0879 16.45 88.0046 16.1167 87.8379 15.85C87.6712 15.5833 87.4046 15.45 87.0379 15.45C86.0712 15.45 85.2046 15.8167 84.4379 16.55C83.6712 17.25 83.0046 18.0667 82.4379 19C81.8712 19.9333 81.4212 20.7667 81.0879 21.5Z" fill="white"/>
<path d="M115.539 29.6C114.706 29.6 113.856 29.3333 112.989 28.8C112.156 28.3 111.306 27.4833 110.439 26.35C109.372 24.8833 108.472 23.4833 107.739 22.15C107.006 20.8167 106.406 19.65 105.939 18.65C105.506 17.65 105.172 16.9333 104.939 16.5C104.939 16.5 105.022 16.4 105.189 16.2C105.356 15.9667 105.556 15.75 105.789 15.55C106.056 15.3167 106.272 15.2 106.439 15.2C108.006 15.2 109.406 15.1833 110.639 15.15C111.906 15.0833 113.022 14.8833 113.989 14.55C114.989 14.1833 115.872 13.5667 116.639 12.7C117.406 11.8333 118.056 10.6 118.589 9C118.756 8.6 118.856 8.2 118.889 7.8C118.956 7.36667 118.989 6.95 118.989 6.55C118.989 5.41667 118.706 4.41667 118.139 3.55C117.572 2.68333 116.756 2.18333 115.689 2.05C115.556 2.01667 115.406 2 115.239 2C115.072 2 114.906 2 114.739 2C114.106 2 113.406 2.08333 112.639 2.25C111.906 2.41667 111.356 2.73333 110.989 3.2C110.156 4.3 109.356 5.55 108.589 6.95C107.822 8.31667 107.089 9.71667 106.389 11.15C105.689 12.55 105.022 13.8667 104.389 15.1C104.222 15.4333 103.906 16.0333 103.439 16.9C102.972 17.7333 102.456 18.7 101.889 19.8C101.322 20.8667 100.789 21.9333 100.289 23C99.7891 24.0667 99.3891 25.0167 99.0891 25.85C98.8224 26.6833 98.7557 27.25 98.8891 27.55C98.9224 27.5833 98.9391 27.6333 98.9391 27.7C98.9391 27.8 98.8891 27.85 98.7891 27.85C98.5224 27.85 98.2557 27.7833 97.9891 27.65C97.7224 27.5167 97.4057 27.45 97.0391 27.45C96.7057 27.45 96.3724 27.5333 96.0391 27.7C95.7057 27.8333 95.2724 28.0833 94.7391 28.45C94.2057 28.8167 93.6057 29.1167 92.9391 29.35C92.8724 29.3833 92.7724 29.4 92.6391 29.4C92.4057 29.4 92.2224 29.3333 92.0891 29.2C91.9557 29.1 91.9557 29.0167 92.0891 28.95C92.8224 28.8167 93.4557 28.55 93.9891 28.15C94.5224 27.7167 94.9557 27.1833 95.2891 26.55C95.9891 25.3833 96.6724 24.2167 97.3391 23.05C98.0391 21.85 98.7057 20.65 99.3391 19.45C100.106 17.9833 100.889 16.5167 101.689 15.05C102.489 13.55 103.289 12.0667 104.089 10.6C104.856 9.23333 105.539 7.91667 106.139 6.65C106.739 5.38333 107.189 4.46667 107.489 3.9C107.722 3.46667 108.122 3.08333 108.689 2.75C109.289 2.38333 109.872 2.1 110.439 1.9C110.239 1.9 110.039 1.9 109.839 1.9C109.639 1.86667 109.422 1.85 109.189 1.85C108.156 1.85 107.022 1.91667 105.789 2.05C104.589 2.15 103.406 2.31667 102.239 2.55C101.106 2.78333 100.106 3.1 99.2391 3.5C98.3724 3.9 97.7891 4.38333 97.4891 4.95C97.3557 5.25 97.2391 5.55 97.1391 5.85C97.0391 6.15 96.9891 6.45 96.9891 6.75C96.9891 7.51667 97.2557 8.06667 97.7891 8.4C97.8224 8.4 97.8391 8.43333 97.8391 8.5C97.8391 8.56667 97.7724 8.63333 97.6391 8.7C97.5391 8.76667 97.4557 8.78333 97.3891 8.75C97.0557 8.58333 96.6724 8.18333 96.2391 7.55C95.8391 6.88333 95.5724 6.33333 95.4391 5.9C95.3391 5.5 95.2891 5.13333 95.2891 4.8C95.2891 3.93333 95.5724 3.26667 96.1391 2.8C96.7057 2.3 97.4224 1.95 98.2891 1.75C99.1557 1.51667 100.039 1.38333 100.939 1.35C101.872 1.28333 102.689 1.25 103.389 1.25C104.456 1.25 105.722 1.25 107.189 1.25C108.656 1.21667 110.006 1.2 111.239 1.2C111.539 1.2 111.872 1.2 112.239 1.2C112.606 1.16667 112.989 1.15 113.389 1.15C114.289 1.15 115.222 1.2 116.189 1.3C117.156 1.4 118.039 1.61667 118.839 1.95C119.639 2.28333 120.256 2.8 120.689 3.5C121.256 4.43333 121.539 5.5 121.539 6.7C121.539 8.53333 121.056 10.0667 120.089 11.3C119.756 11.7333 119.389 12.15 118.989 12.55C118.589 12.95 118.122 13.3333 117.589 13.7C116.722 14.3 115.689 14.8167 114.489 15.25C113.289 15.65 112.039 15.95 110.739 16.15C109.472 16.35 108.306 16.4833 107.239 16.55C107.672 17.4833 108.322 18.7333 109.189 20.3C110.089 21.8667 111.172 23.4333 112.439 25C113.106 25.8333 113.789 26.4167 114.489 26.75C115.189 27.0833 115.872 27.25 116.539 27.25C117.606 27.25 118.606 26.9333 119.539 26.3C120.506 25.6667 121.372 24.9333 122.139 24.1C122.939 23.2333 123.572 22.4833 124.039 21.85C124.139 21.6833 124.222 21.6 124.289 21.6C124.389 21.6 124.439 21.7 124.439 21.9C124.439 22.1667 124.339 22.4333 124.139 22.7C122.606 24.8 121.139 26.4833 119.739 27.75C118.339 28.9833 116.939 29.6 115.539 29.6Z" fill="white"/>
<path d="M121.567 45.95C120.301 45.95 119.084 45.65 117.917 45.05C116.717 44.4833 115.834 43.6 115.267 42.4C115.067 41.9667 114.934 41.5 114.867 41C114.801 40.5333 114.767 40.0667 114.767 39.6V39.05C114.767 38.7833 114.801 38.5333 114.867 38.3C114.934 38.1 115.101 38 115.367 38C115.434 38 115.467 38.0333 115.467 38.1C115.467 38.3 115.451 38.5 115.417 38.7C115.384 38.9 115.367 39.1167 115.367 39.35C115.367 40.8833 115.867 42.05 116.867 42.85C117.834 43.65 119.051 44.05 120.517 44.05C121.117 44.05 121.734 43.9833 122.367 43.85C123.001 43.7167 123.601 43.5333 124.167 43.3C126.267 42.4 128.084 41.1167 129.617 39.45C131.184 37.8167 132.551 35.9667 133.717 33.9C134.884 31.8333 135.934 29.7333 136.867 27.6C137.401 26.3333 137.867 25.1 138.267 23.9C138.701 22.7 139.084 21.6167 139.417 20.65C139.084 21.1167 138.651 21.6833 138.117 22.35C137.584 23.0167 137.051 23.6667 136.517 24.3C135.984 24.9 135.517 25.3833 135.117 25.75C134.284 26.55 133.384 27.2333 132.417 27.8C131.484 28.3333 130.517 28.6 129.517 28.6C129.184 28.6 128.901 28.5333 128.667 28.4C128.434 28.2667 128.317 28.0167 128.317 27.65C128.317 27.1833 128.434 26.6333 128.667 26C128.934 25.3667 129.217 24.7333 129.517 24.1C129.817 23.4667 130.067 22.95 130.267 22.55C130.667 21.7833 131.051 21.0167 131.417 20.25C131.784 19.4833 132.101 18.8333 132.367 18.3C132.634 17.8 132.767 17.4667 132.767 17.3C132.767 17.0333 132.567 17.0333 132.167 17.3C131.801 17.5667 131.451 17.8333 131.117 18.1C130.384 18.8 129.617 19.6333 128.817 20.6C128.017 21.5333 127.401 22.2833 126.967 22.85C126.867 22.9833 126.784 23.05 126.717 23.05C126.651 23.05 126.617 22.9667 126.617 22.8C126.617 22.5333 126.701 22.2833 126.867 22.05C127.334 21.3833 127.884 20.65 128.517 19.85C129.151 19.05 129.801 18.2833 130.467 17.55C131.101 16.8833 131.751 16.2333 132.417 15.6C133.084 14.9667 133.934 14.65 134.967 14.65C135.667 14.65 136.017 14.9167 136.017 15.45C136.017 15.9167 135.817 16.45 135.417 17.05C135.184 17.4167 134.817 18.0333 134.317 18.9C133.817 19.7667 133.301 20.7167 132.767 21.75C132.267 22.75 131.834 23.6833 131.467 24.55C131.101 25.4167 130.917 26.05 130.917 26.45C130.917 26.9167 131.151 27.15 131.617 27.15C131.984 27.15 132.434 26.9667 132.967 26.6C133.501 26.2 134.051 25.7333 134.617 25.2C135.584 24.2667 136.467 23.2333 137.267 22.1C138.101 20.9667 138.817 19.8833 139.417 18.85C139.517 18.6833 139.684 18.3833 139.917 17.95C140.184 17.5167 140.451 17.1 140.717 16.7C141.017 16.3 141.251 16.0667 141.417 16C141.584 15.9333 141.917 15.75 142.417 15.45C142.917 15.15 143.417 14.95 143.917 14.85C144.384 14.75 144.734 14.7 144.967 14.7C145.334 14.7 145.517 14.8 145.517 15C145.517 15.2667 145.367 15.4 145.067 15.4C144.701 15.4 144.367 15.5 144.067 15.7C143.767 15.8667 143.534 16.0833 143.367 16.35C143.067 16.7833 142.634 17.5667 142.067 18.7C141.534 19.8333 140.934 21.15 140.267 22.65C139.634 24.1167 139.001 25.6167 138.367 27.15C137.734 28.65 137.151 30.0333 136.617 31.3C135.817 33.2 134.901 35.05 133.867 36.85C132.834 38.6833 131.617 40.3167 130.217 41.75C128.851 43.2167 127.217 44.3667 125.317 45.2C124.184 45.7 122.934 45.95 121.567 45.95Z" fill="white"/>
<path d="M147.705 28.55C147.171 28.55 146.688 28.45 146.255 28.25C145.855 28.0167 145.655 27.5333 145.655 26.8C145.655 25.6333 145.955 24.4667 146.555 23.3C147.155 22.1 147.771 21.05 148.405 20.15C148.971 19.3833 149.605 18.6667 150.305 18C151.038 17.3 151.821 16.7 152.655 16.2C153.188 15.8667 153.905 15.5167 154.805 15.15C155.738 14.75 156.521 14.55 157.155 14.55C157.688 14.55 158.155 14.7 158.555 15C158.955 15.2667 159.155 15.7667 159.155 16.5C159.155 17.6333 158.855 18.8 158.255 20C157.688 21.1667 157.088 22.2 156.455 23.1C156.155 23.5 155.855 23.8833 155.555 24.25C155.255 24.5833 154.921 24.9333 154.555 25.3C155.788 25.3 156.921 24.95 157.955 24.25C158.988 23.5167 159.888 22.6333 160.655 21.6L160.755 21.5C160.855 21.5 160.905 21.6 160.905 21.8C160.905 22.0333 160.838 22.25 160.705 22.45C160.038 23.3833 159.205 24.2167 158.205 24.95C157.205 25.65 156.071 26 154.805 26C154.671 26 154.538 26 154.405 26C154.271 26 154.138 25.9833 154.005 25.95C152.138 27.6833 150.038 28.55 147.705 28.55ZM149.005 27.7C149.471 27.7 149.971 27.5333 150.505 27.2C151.071 26.8667 151.505 26.55 151.805 26.25C152.371 25.6833 152.888 25.0833 153.355 24.45C153.821 23.7833 154.255 23.1167 154.655 22.45C155.121 21.65 155.588 20.7 156.055 19.6C156.521 18.5 156.755 17.4667 156.755 16.5C156.755 15.7333 156.488 15.35 155.955 15.35C155.521 15.35 154.988 15.5333 154.355 15.9C153.755 16.2667 153.305 16.6 153.005 16.9C151.871 18.0667 150.921 19.3333 150.155 20.7C149.721 21.4667 149.255 22.3667 148.755 23.4C148.255 24.4333 148.005 25.3833 148.005 26.25C148.005 26.3833 148.005 26.5167 148.005 26.65C148.038 26.75 148.071 26.8667 148.105 27C148.238 27.4667 148.538 27.7 149.005 27.7Z" fill="white"/>
<path d="M6.45 30.35C5.41667 30.35 4.43333 30.05 3.5 29.45C2.56667 28.8833 1.86667 28 1.4 26.8C1.23333 26.3667 1.11667 25.9 1.05 25.4C1.01667 24.9 1 24.4167 1 23.95V23.3C1 23.0667 1.01667 22.85 1.05 22.65C1.11667 22.45 1.25 22.35 1.45 22.35C1.51667 22.35 1.55 22.3833 1.55 22.45C1.55 22.65 1.53333 22.85 1.5 23.05C1.5 23.25 1.5 23.45 1.5 23.65C1.5 25.2167 1.88333 26.4167 2.65 27.25C3.45 28.05 4.43333 28.45 5.6 28.45C6.76667 28.45 7.9 28.1167 9 27.45C10.1 26.75 11.1167 25.8833 12.05 24.85C12.5833 24.2833 13.1833 23.4333 13.85 22.3C14.55 21.1333 15.2667 19.8333 16 18.4C16.7667 16.9333 17.5333 15.4333 18.3 13.9C19.0667 12.3333 19.8 10.8333 20.5 9.4C21.2 7.93333 21.8333 6.65 22.4 5.55C22.9333 4.51667 23.65 3.7 24.55 3.1C25.45 2.5 26.2167 2.08333 26.85 1.85C26.6167 1.85 26.1167 1.86667 25.35 1.9C24.6167 1.93333 23.8333 1.96667 23 2C22.1667 2.03333 21.5 2.06667 21 2.1C19.7333 2.16667 18.45 2.31667 17.15 2.55C15.85 2.78333 14.7 3.1 13.7 3.5C12.7 3.9 11.9833 4.41667 11.55 5.05C11.25 5.48333 11.1 5.98333 11.1 6.55C11.1 7.68333 11.6 8.5 12.6 9C12.6667 9.06667 12.7 9.1 12.7 9.1C12.7 9.2 12.6167 9.3 12.45 9.4C12.2833 9.46667 12.1167 9.48333 11.95 9.45C11.6833 9.28333 11.35 9.01667 10.95 8.65C10.5833 8.25 10.2333 7.83333 9.9 7.4C9.6 6.96667 9.4 6.6 9.3 6.3C9.13333 5.8 9.05 5.4 9.05 5.1C9.05 4.3 9.35 3.65 9.95 3.15C10.55 2.61667 11.3333 2.21667 12.3 1.95C13.2667 1.65 14.3 1.45 15.4 1.35C16.5 1.21667 17.5667 1.13333 18.6 1.1C19.6333 1.06667 20.5167 1.05 21.25 1.05C22.95 1.05 24.4667 1.05 25.8 1.05C27.1667 1.01667 28.4167 1 29.55 1C30.7167 1 31.8333 1.01667 32.9 1.05C34 1.08333 35.15 1.13333 36.35 1.2C37.2167 1.23333 37.8 1.4 38.1 1.7C38.4333 2 38.6 2.36667 38.6 2.8C38.6 3.36667 38.4167 3.98333 38.05 4.65C37.6833 5.31667 37.35 5.93333 37.05 6.5C36.9167 6.76667 36.7 6.96667 36.4 7.1C36.1 7.2 35.9833 7.1 36.05 6.8C36.1167 6.5 36.1833 6.18333 36.25 5.85C36.3167 5.48333 36.35 5.13333 36.35 4.8C36.35 4.2 36.2333 3.66667 36 3.2C35.7667 2.7 35.3667 2.35 34.8 2.15C34.4667 2.01667 34.0667 1.93333 33.6 1.9C33.1333 1.83333 32.6333 1.8 32.1 1.8C31.1 1.8 30.1 1.9 29.1 2.1C28.1 2.3 27.3167 2.61667 26.75 3.05C26.05 3.58333 25.3333 4.45 24.6 5.65C23.9 6.85 23.2333 8.13333 22.6 9.5C21.9667 10.8667 21.4 12.0667 20.9 13.1C20.8667 13.1667 20.85 13.2667 20.85 13.4C20.85 13.5667 21 13.65 21.3 13.65C21.7667 13.65 22.4167 13.65 23.25 13.65C24.1167 13.65 25.0167 13.6667 25.95 13.7C26.8833 13.7 27.6833 13.7 28.35 13.7C29.0833 13.7 29.6667 13.75 30.1 13.85C30.5333 13.9167 30.75 14.1333 30.75 14.5C30.75 14.6333 30.6667 14.9 30.5 15.3C30.2667 15.8333 30 16.3 29.7 16.7C29.4333 17.0667 29.2167 17.45 29.05 17.85C29.0167 17.9833 28.8667 18.1 28.6 18.2C28.3333 18.3 28.2333 18.2833 28.3 18.15C28.4333 17.85 28.5667 17.4833 28.7 17.05C28.8667 16.5833 28.95 16.1833 28.95 15.85C28.95 15.3167 28.7167 15.05 28.25 15.05H20.45C20.15 15.05 19.9167 15.1833 19.75 15.45C18.7833 17.3833 17.7333 19.45 16.6 21.65C15.5 23.85 14.2167 25.7333 12.75 27.3C11.9167 28.2 10.95 28.9333 9.85 29.5C8.75 30.0667 7.61667 30.35 6.45 30.35Z" stroke="white" stroke-width="0.827225" stroke-linejoin="round" mask="url(#path-1-outside-1_54_1006)"/>
<path d="M36.0016 28.6C35.6682 28.6 35.3849 28.5333 35.1516 28.4C34.9182 28.2667 34.8016 28.0167 34.8016 27.65C34.8016 27.1833 34.9182 26.6333 35.1516 26C35.4182 25.3667 35.7016 24.7333 36.0016 24.1C36.3016 23.4667 36.5516 22.95 36.7516 22.55C37.1516 21.7833 37.5349 21.0167 37.9016 20.25C38.2682 19.4833 38.5849 18.8333 38.8516 18.3C39.1182 17.8 39.2516 17.4667 39.2516 17.3C39.2516 17.0333 39.0516 17.0333 38.6516 17.3C38.2849 17.5667 37.9349 17.8333 37.6016 18.1C36.8682 18.8 36.1016 19.6333 35.3016 20.6C34.5016 21.5333 33.8849 22.2833 33.4516 22.85C33.3516 22.9833 33.2682 23.05 33.2016 23.05C33.1349 23.05 33.1016 22.9667 33.1016 22.8C33.1016 22.5333 33.1849 22.2833 33.3516 22.05C33.8182 21.3833 34.3682 20.65 35.0016 19.85C35.6349 19.05 36.2849 18.2833 36.9516 17.55C37.5849 16.8833 38.2349 16.2333 38.9016 15.6C39.5682 14.9667 40.4182 14.65 41.4516 14.65C42.1516 14.65 42.5016 14.9167 42.5016 15.45C42.5016 15.9167 42.3016 16.45 41.9016 17.05C41.6682 17.4167 41.3016 18.0333 40.8016 18.9C40.3016 19.7667 39.7849 20.7167 39.2516 21.75C38.7516 22.75 38.3182 23.6833 37.9516 24.55C37.5849 25.4167 37.4016 26.05 37.4016 26.45C37.4016 26.9167 37.6349 27.15 38.1016 27.15C38.4682 27.15 38.9182 26.9667 39.4516 26.6C39.9849 26.2 40.5349 25.7333 41.1016 25.2C42.1349 24.2 43.0682 23.1167 43.9016 21.95C44.7682 20.75 45.5016 19.6 46.1016 18.5C46.7349 17.4 47.2349 16.5 47.6016 15.8C47.6682 15.6667 47.7349 15.5167 47.8016 15.35C47.9016 15.15 48.0516 15.0333 48.2516 15C48.4516 14.9667 48.8849 14.95 49.5516 14.95C50.2182 14.95 50.8349 14.8167 51.4016 14.55H51.5016C51.6016 14.55 51.6516 14.6 51.6516 14.7C51.6516 14.9667 51.4349 15.1667 51.0016 15.3C50.6016 15.4333 50.1349 15.8333 49.6016 16.5C49.1016 17.1667 48.6016 17.9833 48.1016 18.95C47.6016 19.8833 47.1516 20.85 46.7516 21.85C46.3516 22.85 46.0516 23.7667 45.8516 24.6C45.6516 25.4333 45.6016 26.05 45.7016 26.45C45.8349 26.9167 46.0682 27.15 46.4016 27.15C46.8349 27.15 47.4349 26.8833 48.2016 26.35C49.0016 25.8167 49.8182 25.1833 50.6516 24.45C51.4849 23.6833 52.1682 22.9833 52.7016 22.35C52.9349 22.0833 53.1516 21.8167 53.3516 21.55C53.5516 21.2833 53.6849 21.1167 53.7516 21.05C53.7849 21.0833 53.8182 21.15 53.8516 21.25C53.8849 21.3167 53.9016 21.3833 53.9016 21.45C53.8682 21.6833 53.7849 21.9167 53.6516 22.15C53.5182 22.35 53.3682 22.5333 53.2016 22.7C52.5682 23.5333 51.8016 24.4167 50.9016 25.35C50.0349 26.25 49.0849 27.0167 48.0516 27.65C47.0516 28.2833 46.0182 28.6 44.9516 28.6C44.6182 28.6 44.2349 28.5167 43.8016 28.35C43.4016 28.1833 43.2016 27.8167 43.2016 27.25C43.2016 26.8167 43.3182 26.2333 43.5516 25.5C43.7849 24.7333 44.0349 23.9833 44.3016 23.25C44.6016 22.4833 44.8516 21.9167 45.0516 21.55C44.6182 22.1833 44.0849 22.9 43.4516 23.7C42.8516 24.4667 42.2349 25.15 41.6016 25.75C40.7682 26.55 39.8682 27.2333 38.9016 27.8C37.9682 28.3333 37.0016 28.6 36.0016 28.6Z" stroke="white" stroke-width="0.827225" stroke-linejoin="round" mask="url(#path-1-outside-1_54_1006)"/>
<path d="M63.8805 9.35C63.4138 9.35 63.0805 9.2 62.8805 8.9C62.7471 8.73333 62.6805 8.51667 62.6805 8.25C62.6805 7.71667 62.9471 7.28333 63.4805 6.95C63.7805 6.75 64.1138 6.65 64.4805 6.65C64.9471 6.65 65.2805 6.8 65.4805 7.1C65.6138 7.26667 65.6805 7.48333 65.6805 7.75C65.6805 8.28333 65.4138 8.71667 64.8805 9.05C64.5805 9.25 64.2471 9.35 63.8805 9.35ZM39.9805 45.95C38.7138 45.95 37.4971 45.65 36.3305 45.05C35.1305 44.4833 34.2471 43.6 33.6805 42.4C33.4805 41.9667 33.3471 41.5 33.2805 41C33.2138 40.5333 33.1805 40.0667 33.1805 39.6V39.05C33.1805 38.7833 33.2138 38.5333 33.2805 38.3C33.3471 38.1 33.5138 38 33.7805 38C33.8805 38 33.9305 38.0333 33.9305 38.1C33.9305 38.3 33.9138 38.5 33.8805 38.7C33.8138 38.9 33.7805 39.1167 33.7805 39.35C33.7805 40.8833 34.2805 42.05 35.2805 42.85C36.2471 43.65 37.4638 44.05 38.9305 44.05C39.5305 44.05 40.1471 43.9833 40.7805 43.85C41.4138 43.7167 42.0138 43.5333 42.5805 43.3C44.6805 42.4 46.5138 41.1167 48.0805 39.45C49.6138 37.8167 50.9638 35.9667 52.1305 33.9C53.2971 31.8333 54.3471 29.7333 55.2805 27.6C56.0805 25.7333 56.7471 23.9833 57.2805 22.35C57.8138 20.7167 58.2305 19.3667 58.5305 18.3C58.8638 17.2333 59.0805 16.65 59.1805 16.55C59.7138 16.0167 60.4138 15.5833 61.2805 15.25C62.1471 14.8833 62.8305 14.7 63.3305 14.7C63.7305 14.7 63.9305 14.8 63.9305 15C63.9305 15.2667 63.7805 15.4 63.4805 15.4C63.1138 15.4 62.7805 15.5 62.4805 15.7C62.1805 15.8667 61.9471 16.0833 61.7805 16.35C61.4805 16.7833 61.0471 17.5667 60.4805 18.7C59.9471 19.8333 59.3471 21.15 58.6805 22.65C58.0471 24.1167 57.4138 25.6167 56.7805 27.15C56.1471 28.65 55.5638 30.0333 55.0305 31.3C54.2305 33.2 53.3305 35.05 52.3305 36.85C51.2971 38.6833 50.0805 40.3167 48.6805 41.75C47.2805 43.2167 45.6305 44.3667 43.7305 45.2C42.5971 45.7 41.3471 45.95 39.9805 45.95Z" stroke="white" stroke-width="0.827225" stroke-linejoin="round" mask="url(#path-1-outside-1_54_1006)"/>
<path d="M75.9688 9.35C75.5021 9.35 75.1687 9.2 74.9688 8.9C74.8354 8.73333 74.7688 8.51667 74.7688 8.25C74.7688 7.71667 75.0188 7.28333 75.5188 6.95C75.8854 6.75 76.2188 6.65 76.5188 6.65C77.0188 6.65 77.3688 6.8 77.5687 7.1C77.7021 7.26667 77.7688 7.48333 77.7688 7.75C77.7688 8.28333 77.5021 8.71667 76.9688 9.05C76.6687 9.25 76.3354 9.35 75.9688 9.35ZM67.2688 28.6C66.9354 28.6 66.6521 28.5333 66.4187 28.4C66.2188 28.2667 66.1188 28.0167 66.1188 27.65C66.1188 27.1833 66.2354 26.6333 66.4688 26C66.7354 25.3667 67.0187 24.7333 67.3187 24.1C67.6521 23.4667 67.9021 22.95 68.0687 22.55C68.3021 22.0833 68.5854 21.4833 68.9187 20.75C69.2854 19.9833 69.6187 19.2667 69.9187 18.6C70.2521 17.9 70.4854 17.4167 70.6188 17.15C70.1521 17.65 69.5854 18.2833 68.9187 19.05C68.2854 19.7833 67.6854 20.5 67.1188 21.2C66.5521 21.9 66.1188 22.45 65.8187 22.85C65.7188 22.9833 65.6354 23.05 65.5687 23.05C65.5021 23.05 65.4688 22.9667 65.4688 22.8C65.4688 22.5333 65.5521 22.2833 65.7188 22.05C66.3521 21.25 67.0521 20.35 67.8187 19.35C68.6188 18.35 69.3354 17.4333 69.9688 16.6C70.6021 15.7333 71.0021 15.1667 71.1687 14.9C71.5354 14.8333 72.0688 14.7333 72.7688 14.6C73.5021 14.4667 74.0021 14.2833 74.2688 14.05C74.3688 13.95 74.4688 13.9 74.5687 13.9C74.6354 13.9 74.6687 13.9667 74.6687 14.1C74.7021 14.2 74.6687 14.3167 74.5687 14.45C74.3688 14.6833 74.0188 15.25 73.5188 16.15C73.0188 17.05 72.4854 18.05 71.9187 19.15C71.3854 20.2167 70.8854 21.1833 70.4187 22.05C69.9521 22.95 69.5521 23.8167 69.2188 24.65C68.8854 25.4833 68.7188 26.0833 68.7188 26.45C68.7188 26.9167 68.9521 27.15 69.4187 27.15C69.8521 27.15 70.4021 26.8833 71.0687 26.35C71.7687 25.8167 72.4688 25.1833 73.1687 24.45C73.8687 23.6833 74.4854 22.9833 75.0188 22.35C75.1854 22.15 75.3854 21.9167 75.6188 21.65C75.8854 21.35 76.0521 21.1667 76.1188 21.1C76.1854 21.1667 76.2188 21.2833 76.2188 21.45C76.1854 21.6833 76.1021 21.9167 75.9688 22.15C75.8354 22.35 75.7021 22.5333 75.5687 22.7C74.8688 23.5667 74.1021 24.4667 73.2688 25.4C72.4354 26.3 71.5188 27.0667 70.5188 27.7C69.5188 28.3 68.4354 28.6 67.2688 28.6Z" stroke="white" stroke-width="0.827225" stroke-linejoin="round" mask="url(#path-1-outside-1_54_1006)"/>
<path d="M81.0379 28.85C79.6712 28.85 78.7212 28.5833 78.1879 28.05C77.6546 27.5167 77.3879 26.8667 77.3879 26.1C77.3879 25.1333 77.6379 24.1 78.1379 23C78.6712 21.9 79.1712 20.9667 79.6379 20.2C80.1712 19.4 80.8879 18.5667 81.7879 17.7C82.6879 16.8333 83.6712 16.1 84.7379 15.5C85.8046 14.9 86.8379 14.6 87.8379 14.6C88.7046 14.6 89.3046 14.8167 89.6379 15.25C89.9712 15.65 90.1379 16.1333 90.1379 16.7C90.1379 17.7333 89.8212 18.5833 89.1879 19.25C88.5879 19.9167 87.8379 20.4667 86.9379 20.9C86.0379 21.3 85.1712 21.6333 84.3379 21.9C83.8379 22.0333 83.2546 22.1667 82.5879 22.3C81.9212 22.4333 81.2879 22.5 80.6879 22.5C80.4546 23.1 80.2712 23.6833 80.1379 24.25C80.0046 24.8167 79.9379 25.3333 79.9379 25.8C79.9379 26.3667 80.0712 26.8333 80.3379 27.2C80.6379 27.5667 81.1212 27.75 81.7879 27.75C82.0546 27.75 82.3712 27.7167 82.7379 27.65C83.1046 27.5833 83.5046 27.4833 83.9379 27.35C84.9379 27.0167 85.9212 26.4833 86.8879 25.75C87.8546 25.0167 88.7379 24.2333 89.5379 23.4C90.3712 22.5333 91.0046 21.8167 91.4379 21.25C91.5379 21.35 91.5879 21.4667 91.5879 21.6C91.5879 21.7667 91.4712 22.0333 91.2379 22.4C90.5712 23.3333 89.7046 24.3 88.6379 25.3C87.5712 26.3 86.3879 27.15 85.0879 27.85C83.7879 28.5167 82.4379 28.85 81.0379 28.85ZM81.0879 21.5C81.5212 21.5333 82.0046 21.5333 82.5379 21.5C83.1046 21.4333 83.6546 21.3167 84.1879 21.15C85.5546 20.75 86.5379 20.1167 87.1379 19.25C87.7712 18.35 88.0879 17.55 88.0879 16.85C88.0879 16.45 88.0046 16.1167 87.8379 15.85C87.6712 15.5833 87.4046 15.45 87.0379 15.45C86.0712 15.45 85.2046 15.8167 84.4379 16.55C83.6712 17.25 83.0046 18.0667 82.4379 19C81.8712 19.9333 81.4212 20.7667 81.0879 21.5Z" stroke="white" stroke-width="0.827225" stroke-linejoin="round" mask="url(#path-1-outside-1_54_1006)"/>
<path d="M115.539 29.6C114.706 29.6 113.856 29.3333 112.989 28.8C112.156 28.3 111.306 27.4833 110.439 26.35C109.372 24.8833 108.472 23.4833 107.739 22.15C107.006 20.8167 106.406 19.65 105.939 18.65C105.506 17.65 105.172 16.9333 104.939 16.5C104.939 16.5 105.022 16.4 105.189 16.2C105.356 15.9667 105.556 15.75 105.789 15.55C106.056 15.3167 106.272 15.2 106.439 15.2C108.006 15.2 109.406 15.1833 110.639 15.15C111.906 15.0833 113.022 14.8833 113.989 14.55C114.989 14.1833 115.872 13.5667 116.639 12.7C117.406 11.8333 118.056 10.6 118.589 9C118.756 8.6 118.856 8.2 118.889 7.8C118.956 7.36667 118.989 6.95 118.989 6.55C118.989 5.41667 118.706 4.41667 118.139 3.55C117.572 2.68333 116.756 2.18333 115.689 2.05C115.556 2.01667 115.406 2 115.239 2C115.072 2 114.906 2 114.739 2C114.106 2 113.406 2.08333 112.639 2.25C111.906 2.41667 111.356 2.73333 110.989 3.2C110.156 4.3 109.356 5.55 108.589 6.95C107.822 8.31667 107.089 9.71667 106.389 11.15C105.689 12.55 105.022 13.8667 104.389 15.1C104.222 15.4333 103.906 16.0333 103.439 16.9C102.972 17.7333 102.456 18.7 101.889 19.8C101.322 20.8667 100.789 21.9333 100.289 23C99.7891 24.0667 99.3891 25.0167 99.0891 25.85C98.8224 26.6833 98.7557 27.25 98.8891 27.55C98.9224 27.5833 98.9391 27.6333 98.9391 27.7C98.9391 27.8 98.8891 27.85 98.7891 27.85C98.5224 27.85 98.2557 27.7833 97.9891 27.65C97.7224 27.5167 97.4057 27.45 97.0391 27.45C96.7057 27.45 96.3724 27.5333 96.0391 27.7C95.7057 27.8333 95.2724 28.0833 94.7391 28.45C94.2057 28.8167 93.6057 29.1167 92.9391 29.35C92.8724 29.3833 92.7724 29.4 92.6391 29.4C92.4057 29.4 92.2224 29.3333 92.0891 29.2C91.9557 29.1 91.9557 29.0167 92.0891 28.95C92.8224 28.8167 93.4557 28.55 93.9891 28.15C94.5224 27.7167 94.9557 27.1833 95.2891 26.55C95.9891 25.3833 96.6724 24.2167 97.3391 23.05C98.0391 21.85 98.7057 20.65 99.3391 19.45C100.106 17.9833 100.889 16.5167 101.689 15.05C102.489 13.55 103.289 12.0667 104.089 10.6C104.856 9.23333 105.539 7.91667 106.139 6.65C106.739 5.38333 107.189 4.46667 107.489 3.9C107.722 3.46667 108.122 3.08333 108.689 2.75C109.289 2.38333 109.872 2.1 110.439 1.9C110.239 1.9 110.039 1.9 109.839 1.9C109.639 1.86667 109.422 1.85 109.189 1.85C108.156 1.85 107.022 1.91667 105.789 2.05C104.589 2.15 103.406 2.31667 102.239 2.55C101.106 2.78333 100.106 3.1 99.2391 3.5C98.3724 3.9 97.7891 4.38333 97.4891 4.95C97.3557 5.25 97.2391 5.55 97.1391 5.85C97.0391 6.15 96.9891 6.45 96.9891 6.75C96.9891 7.51667 97.2557 8.06667 97.7891 8.4C97.8224 8.4 97.8391 8.43333 97.8391 8.5C97.8391 8.56667 97.7724 8.63333 97.6391 8.7C97.5391 8.76667 97.4557 8.78333 97.3891 8.75C97.0557 8.58333 96.6724 8.18333 96.2391 7.55C95.8391 6.88333 95.5724 6.33333 95.4391 5.9C95.3391 5.5 95.2891 5.13333 95.2891 4.8C95.2891 3.93333 95.5724 3.26667 96.1391 2.8C96.7057 2.3 97.4224 1.95 98.2891 1.75C99.1557 1.51667 100.039 1.38333 100.939 1.35C101.872 1.28333 102.689 1.25 103.389 1.25C104.456 1.25 105.722 1.25 107.189 1.25C108.656 1.21667 110.006 1.2 111.239 1.2C111.539 1.2 111.872 1.2 112.239 1.2C112.606 1.16667 112.989 1.15 113.389 1.15C114.289 1.15 115.222 1.2 116.189 1.3C117.156 1.4 118.039 1.61667 118.839 1.95C119.639 2.28333 120.256 2.8 120.689 3.5C121.256 4.43333 121.539 5.5 121.539 6.7C121.539 8.53333 121.056 10.0667 120.089 11.3C119.756 11.7333 119.389 12.15 118.989 12.55C118.589 12.95 118.122 13.3333 117.589 13.7C116.722 14.3 115.689 14.8167 114.489 15.25C113.289 15.65 112.039 15.95 110.739 16.15C109.472 16.35 108.306 16.4833 107.239 16.55C107.672 17.4833 108.322 18.7333 109.189 20.3C110.089 21.8667 111.172 23.4333 112.439 25C113.106 25.8333 113.789 26.4167 114.489 26.75C115.189 27.0833 115.872 27.25 116.539 27.25C117.606 27.25 118.606 26.9333 119.539 26.3C120.506 25.6667 121.372 24.9333 122.139 24.1C122.939 23.2333 123.572 22.4833 124.039 21.85C124.139 21.6833 124.222 21.6 124.289 21.6C124.389 21.6 124.439 21.7 124.439 21.9C124.439 22.1667 124.339 22.4333 124.139 22.7C122.606 24.8 121.139 26.4833 119.739 27.75C118.339 28.9833 116.939 29.6 115.539 29.6Z" stroke="white" stroke-width="0.827225" stroke-linejoin="round" mask="url(#path-1-outside-1_54_1006)"/>
<path d="M121.567 45.95C120.301 45.95 119.084 45.65 117.917 45.05C116.717 44.4833 115.834 43.6 115.267 42.4C115.067 41.9667 114.934 41.5 114.867 41C114.801 40.5333 114.767 40.0667 114.767 39.6V39.05C114.767 38.7833 114.801 38.5333 114.867 38.3C114.934 38.1 115.101 38 115.367 38C115.434 38 115.467 38.0333 115.467 38.1C115.467 38.3 115.451 38.5 115.417 38.7C115.384 38.9 115.367 39.1167 115.367 39.35C115.367 40.8833 115.867 42.05 116.867 42.85C117.834 43.65 119.051 44.05 120.517 44.05C121.117 44.05 121.734 43.9833 122.367 43.85C123.001 43.7167 123.601 43.5333 124.167 43.3C126.267 42.4 128.084 41.1167 129.617 39.45C131.184 37.8167 132.551 35.9667 133.717 33.9C134.884 31.8333 135.934 29.7333 136.867 27.6C137.401 26.3333 137.867 25.1 138.267 23.9C138.701 22.7 139.084 21.6167 139.417 20.65C139.084 21.1167 138.651 21.6833 138.117 22.35C137.584 23.0167 137.051 23.6667 136.517 24.3C135.984 24.9 135.517 25.3833 135.117 25.75C134.284 26.55 133.384 27.2333 132.417 27.8C131.484 28.3333 130.517 28.6 129.517 28.6C129.184 28.6 128.901 28.5333 128.667 28.4C128.434 28.2667 128.317 28.0167 128.317 27.65C128.317 27.1833 128.434 26.6333 128.667 26C128.934 25.3667 129.217 24.7333 129.517 24.1C129.817 23.4667 130.067 22.95 130.267 22.55C130.667 21.7833 131.051 21.0167 131.417 20.25C131.784 19.4833 132.101 18.8333 132.367 18.3C132.634 17.8 132.767 17.4667 132.767 17.3C132.767 17.0333 132.567 17.0333 132.167 17.3C131.801 17.5667 131.451 17.8333 131.117 18.1C130.384 18.8 129.617 19.6333 128.817 20.6C128.017 21.5333 127.401 22.2833 126.967 22.85C126.867 22.9833 126.784 23.05 126.717 23.05C126.651 23.05 126.617 22.9667 126.617 22.8C126.617 22.5333 126.701 22.2833 126.867 22.05C127.334 21.3833 127.884 20.65 128.517 19.85C129.151 19.05 129.801 18.2833 130.467 17.55C131.101 16.8833 131.751 16.2333 132.417 15.6C133.084 14.9667 133.934 14.65 134.967 14.65C135.667 14.65 136.017 14.9167 136.017 15.45C136.017 15.9167 135.817 16.45 135.417 17.05C135.184 17.4167 134.817 18.0333 134.317 18.9C133.817 19.7667 133.301 20.7167 132.767 21.75C132.267 22.75 131.834 23.6833 131.467 24.55C131.101 25.4167 130.917 26.05 130.917 26.45C130.917 26.9167 131.151 27.15 131.617 27.15C131.984 27.15 132.434 26.9667 132.967 26.6C133.501 26.2 134.051 25.7333 134.617 25.2C135.584 24.2667 136.467 23.2333 137.267 22.1C138.101 20.9667 138.817 19.8833 139.417 18.85C139.517 18.6833 139.684 18.3833 139.917 17.95C140.184 17.5167 140.451 17.1 140.717 16.7C141.017 16.3 141.251 16.0667 141.417 16C141.584 15.9333 141.917 15.75 142.417 15.45C142.917 15.15 143.417 14.95 143.917 14.85C144.384 14.75 144.734 14.7 144.967 14.7C145.334 14.7 145.517 14.8 145.517 15C145.517 15.2667 145.367 15.4 145.067 15.4C144.701 15.4 144.367 15.5 144.067 15.7C143.767 15.8667 143.534 16.0833 143.367 16.35C143.067 16.7833 142.634 17.5667 142.067 18.7C141.534 19.8333 140.934 21.15 140.267 22.65C139.634 24.1167 139.001 25.6167 138.367 27.15C137.734 28.65 137.151 30.0333 136.617 31.3C135.817 33.2 134.901 35.05 133.867 36.85C132.834 38.6833 131.617 40.3167 130.217 41.75C128.851 43.2167 127.217 44.3667 125.317 45.2C124.184 45.7 122.934 45.95 121.567 45.95Z" stroke="white" stroke-width="0.827225" stroke-linejoin="round" mask="url(#path-1-outside-1_54_1006)"/>
<path d="M147.705 28.55C147.171 28.55 146.688 28.45 146.255 28.25C145.855 28.0167 145.655 27.5333 145.655 26.8C145.655 25.6333 145.955 24.4667 146.555 23.3C147.155 22.1 147.771 21.05 148.405 20.15C148.971 19.3833 149.605 18.6667 150.305 18C151.038 17.3 151.821 16.7 152.655 16.2C153.188 15.8667 153.905 15.5167 154.805 15.15C155.738 14.75 156.521 14.55 157.155 14.55C157.688 14.55 158.155 14.7 158.555 15C158.955 15.2667 159.155 15.7667 159.155 16.5C159.155 17.6333 158.855 18.8 158.255 20C157.688 21.1667 157.088 22.2 156.455 23.1C156.155 23.5 155.855 23.8833 155.555 24.25C155.255 24.5833 154.921 24.9333 154.555 25.3C155.788 25.3 156.921 24.95 157.955 24.25C158.988 23.5167 159.888 22.6333 160.655 21.6L160.755 21.5C160.855 21.5 160.905 21.6 160.905 21.8C160.905 22.0333 160.838 22.25 160.705 22.45C160.038 23.3833 159.205 24.2167 158.205 24.95C157.205 25.65 156.071 26 154.805 26C154.671 26 154.538 26 154.405 26C154.271 26 154.138 25.9833 154.005 25.95C152.138 27.6833 150.038 28.55 147.705 28.55ZM149.005 27.7C149.471 27.7 149.971 27.5333 150.505 27.2C151.071 26.8667 151.505 26.55 151.805 26.25C152.371 25.6833 152.888 25.0833 153.355 24.45C153.821 23.7833 154.255 23.1167 154.655 22.45C155.121 21.65 155.588 20.7 156.055 19.6C156.521 18.5 156.755 17.4667 156.755 16.5C156.755 15.7333 156.488 15.35 155.955 15.35C155.521 15.35 154.988 15.5333 154.355 15.9C153.755 16.2667 153.305 16.6 153.005 16.9C151.871 18.0667 150.921 19.3333 150.155 20.7C149.721 21.4667 149.255 22.3667 148.755 23.4C148.255 24.4333 148.005 25.3833 148.005 26.25C148.005 26.3833 148.005 26.5167 148.005 26.65C148.038 26.75 148.071 26.8667 148.105 27C148.238 27.4667 148.538 27.7 149.005 27.7Z" stroke="white" stroke-width="0.827225" stroke-linejoin="round" mask="url(#path-1-outside-1_54_1006)"/>
</svg>
